<?xml version="1.0" encoding="UTF-8"?>
<svg id="Layer_1" data-name="Layer 1" xmlns="http://www.w3.org/2000/svg" viewBox="0 0 1080 1080">
  <defs>
    <style>
      .cls-1 {
        fill: #fff;
      }

      .cls-2 {
        fill: #a855f7;
      }
    </style>
  </defs>
  <path class="cls-2" d="M910.13,441.06c-27.8-85.57-118.55-133.05-204.33-107.95-2.63-89.34-75.83-160.97-165.81-160.97s-163.18,71.63-165.8,160.97c-85.78-25.11-176.53,22.37-204.33,107.95-27.8,85.57,17.7,177.32,101.86,207.43-50.39,73.82-33.27,174.8,39.52,227.69,72.79,52.89,174.12,37.96,228.76-32.77,54.64,70.73,155.96,85.66,228.76,32.77,72.79-52.89,89.91-153.86,39.52-227.69,84.16-30.11,129.66-121.86,101.86-207.43Z"/>
  <g>
    <path class="cls-1" d="M451.26,420.57h17.9v15.69h1.23c.65-2.04,1.47-3.88,2.45-5.52.98-1.63,2.08-3.11,3.31-4.41,2.21-2.45,4.84-4.27,7.91-5.46,3.07-1.18,6.23-1.78,9.5-1.78,7.6,0,13.67,2.33,18.21,6.99,4.54,4.66,6.81,11.16,6.81,19.5v47.94h-18.27v-42.3c0-4.82-1.02-8.52-3.07-11.1-2.04-2.58-5.6-3.86-10.67-3.86-2.78,0-5.44.51-7.97,1.53-2.54,1.02-4.68,2.92-6.44,5.7-1.76,2.78-2.64,6.62-2.64,11.53v38.5h-18.27v-72.96Z"/>
    <path class="cls-1" d="M533.66,483.29v-62.72h18.27v72.96h-18.27v-10.24ZM534.35,403.87c-2.25-2.25-3.37-4.97-3.37-8.15s1.12-5.78,3.37-8.03c2.25-2.25,4.97-3.37,8.15-3.37s5.78,1.12,8.03,3.37c2.25,2.25,3.37,4.93,3.37,8.03s-1.12,5.91-3.37,8.15c-2.25,2.25-4.93,3.37-8.03,3.37s-5.91-1.12-8.15-3.37Z"/>
    <path class="cls-1" d="M581.6,490.53c-5.72-2.98-10.26-7.34-13.61-13.06-3.35-5.72-5.03-12.55-5.03-20.48s1.74-15,5.21-20.72c3.47-5.72,8.15-10.01,14.04-12.88,5.89-2.86,12.38-4.29,19.5-4.29,5.72,0,11.53.94,17.41,2.82v19.37c-1.55-.82-3.11-1.55-4.66-2.21-1.55-.65-3.15-1.18-4.78-1.59-1.31-.41-2.64-.69-3.98-.86-1.35-.16-2.72-.25-4.11-.25-5.89,0-10.75,1.72-14.59,5.15-3.84,3.43-5.76,8.58-5.76,15.45s1.98,12.06,5.95,15.57c3.96,3.51,8.93,5.27,14.9,5.27,2.86,0,5.76-.43,8.71-1.29,2.94-.86,5.72-2.06,8.34-3.62v19.01c-6.13,2.04-12.18,3.07-18.15,3.07-7.19,0-13.65-1.49-19.37-4.48Z"/>
    <path class="cls-1" d="M642.66,490.4c-5.72-3.06-10.2-7.48-13.43-13.24-3.23-5.76-4.84-12.52-4.84-20.29,0-7.36,1.51-13.9,4.54-19.62,3.02-5.72,7.19-10.18,12.51-13.37,5.31-3.19,11.28-4.78,17.9-4.78s12.55,1.49,17.29,4.48c4.74,2.98,8.34,7.05,10.79,12.2,2.45,5.15,3.68,10.95,3.68,17.41v11.16h-47.45c.82,3.02,2.19,5.54,4.11,7.54,1.92,2,4.23,3.49,6.93,4.48s5.72,1.47,9.07,1.47,6.78-.41,10.3-1.23c3.51-.82,7.03-2.04,10.55-3.68v19.01c-7.36,2.04-14.8,3.07-22.32,3.07s-13.9-1.53-19.62-4.6ZM657.99,451.84h14.71c-.25-5.23-1.39-9.36-3.43-12.38-2.04-3.02-5.76-4.54-11.16-4.54-3.35,0-6.11.74-8.28,2.21-2.17,1.47-3.78,3.45-4.84,5.95-1.06,2.49-1.76,5.41-2.08,8.77h15.08Z"/>
  </g>
  <g>
    <path class="cls-1" d="M256.13,603.07c-3.19-1.47-5.64-3.82-7.36-7.05-1.72-3.23-2.58-7.42-2.58-12.57v-72.59h18.27v20.23h19.74v14.96h-19.86v1.1l.12,34.95c0,2.04.26,3.7.8,4.96.53,1.27,1.31,2.19,2.33,2.76,1.02.57,2.31.86,3.86.86,1.47,0,3.35-.2,5.64-.61,1.14-.24,2.31-.53,3.49-.86,1.18-.32,2.39-.73,3.62-1.23v15.33c-5.8,1.31-11.2,1.96-16.19,1.96s-8.71-.73-11.89-2.21Z"/>
    <path class="cls-1" d="M296.71,505.96h17.9v40.83h1.23c.65-2.04,1.47-3.88,2.45-5.52.98-1.63,2.08-3.11,3.31-4.41,1.47-1.64,3.17-2.98,5.09-4.05,1.92-1.06,3.92-1.86,6.01-2.39s4.19-.8,6.32-.8c4.98,0,9.36,1.02,13.12,3.07,3.76,2.04,6.68,5.07,8.77,9.07,2.08,4.01,3.13,8.79,3.13,14.35v47.94h-18.27v-42.3c0-4.82-1.02-8.52-3.07-11.1-2.04-2.58-5.6-3.86-10.67-3.86-2.78,0-5.44.51-7.97,1.53-2.54,1.02-4.68,2.92-6.44,5.7-1.76,2.78-2.64,6.62-2.64,11.53v38.5h-18.27v-98.09Z"/>
    <path class="cls-1" d="M379.91,517.55c-2.25-2.25-3.37-4.97-3.37-8.15s1.12-5.78,3.37-8.03c2.25-2.25,4.97-3.37,8.15-3.37s5.78,1.12,8.03,3.37c2.25,2.25,3.37,4.93,3.37,8.03s-1.12,5.91-3.37,8.15c-2.25,2.25-4.93,3.37-8.03,3.37s-5.91-1.12-8.15-3.37ZM379.11,593.82v-62.72h18.27v72.96h-18.27v-10.24Z"/>
    <path class="cls-1" d="M413.32,531.1h17.9v15.69h1.23c.65-2.04,1.47-3.88,2.45-5.52.98-1.63,2.08-3.11,3.31-4.41,2.21-2.45,4.84-4.27,7.91-5.46,3.06-1.18,6.23-1.78,9.5-1.78,7.6,0,13.67,2.33,18.21,6.99,4.54,4.66,6.81,11.16,6.81,19.5v47.94h-18.27v-42.3c0-4.82-1.02-8.52-3.06-11.1s-5.6-3.86-10.67-3.86c-2.78,0-5.44.51-7.97,1.53-2.54,1.02-4.68,2.92-6.44,5.7-1.76,2.78-2.64,6.62-2.64,11.53v38.5h-18.27v-72.96Z"/>
    <path class="cls-1" d="M501.12,623.98c-5.39-3.06-8.09-7.26-8.09-12.57,0-2.62.86-4.9,2.58-6.87,1.72-1.96,3.88-3.35,6.5-4.17v-1.1c-3.35-1.47-5.87-3.39-7.54-5.76-1.68-2.37-2.51-4.91-2.51-7.6,0-1.47.22-2.84.67-4.11.45-1.27,1.04-2.43,1.78-3.49.9-1.23,1.98-2.31,3.25-3.25,1.27-.94,2.68-1.78,4.23-2.52v-1.1c-.66-.41-1.29-.92-1.9-1.53s-1.21-1.25-1.78-1.9c-.82-1.06-1.53-2.25-2.15-3.56s-1.08-2.72-1.41-4.23-.49-3.08-.49-4.72c0-5.72,1.29-10.52,3.86-14.41,2.58-3.88,5.93-6.76,10.05-8.64,4.13-1.88,8.6-2.82,13.43-2.82,3.43,0,6.5.67,9.2,2.02,2.7,1.35,4.62,3.13,5.76,5.33h1.1v-15.08h15.21v32.86c0,4.91-1.25,9.3-3.74,13.18-2.5,3.88-5.99,6.91-10.49,9.07-4.5,2.17-9.61,3.25-15.33,3.25-3.52,0-6.42-.28-8.71-.86-1.88-.33-3.88-.98-6.01-1.96-.41.65-.72,1.33-.92,2.02-.2.69-.31,1.53-.31,2.51,0,1.8.55,3.19,1.66,4.17,1.1.98,3,1.47,5.7,1.47h21.21c8.42,0,14.73,1.55,18.94,4.66,4.21,3.11,6.31,7.73,6.31,13.86,0,4.66-1.27,8.66-3.8,12.02-2.54,3.35-6.44,5.93-11.71,7.73-5.27,1.8-11.91,2.7-19.92,2.7-11.04,0-19.25-1.53-24.65-4.6ZM542.93,607.37c0-1.96-.8-3.29-2.39-3.99-1.59-.69-4.15-1.04-7.66-1.04h-21.33c-1.23,1.47-1.84,3.02-1.84,4.66s.63,2.96,1.9,3.99c1.27,1.02,3.15,1.76,5.64,2.21,2.49.45,5.62.67,9.38.67,10.87,0,16.31-2.17,16.31-6.5ZM530.18,565.06c1.96-.82,3.51-2.06,4.66-3.74,1.14-1.67,1.72-3.78,1.72-6.31,0-3.76-1.23-6.6-3.68-8.52-2.45-1.92-5.56-2.88-9.32-2.88-2.37,0-4.54.41-6.5,1.23-1.96.82-3.54,2.08-4.72,3.8-1.19,1.72-1.78,3.84-1.78,6.38,0,3.68,1.25,6.48,3.74,8.4,2.49,1.92,5.58,2.88,9.26,2.88,2.45,0,4.66-.41,6.62-1.23Z"/>
    <path class="cls-1" d="M565.61,602.46v-17.9c2.04.9,4.37,1.72,6.99,2.45,2.61.74,5.27,1.35,7.97,1.84,1.8.33,3.6.59,5.39.8,1.8.2,3.51.31,5.15.31,3.76,0,6.82-.37,9.2-1.1,2.37-.74,3.56-1.96,3.56-3.68s-1.35-3.11-4.05-4.41c-2.7-1.31-6.79-2.78-12.26-4.41-4.41-1.39-8.15-2.88-11.22-4.48-3.06-1.59-5.64-3.9-7.73-6.93-2.08-3.02-3.13-6.95-3.13-11.77,0-7.76,2.98-13.63,8.95-17.6,5.97-3.96,13.77-5.95,23.42-5.95,6.38,0,13.12.94,20.23,2.82v18.15c-1.8-.9-3.94-1.74-6.44-2.51-2.5-.78-5.09-1.45-7.79-2.02-1.55-.33-3.11-.57-4.66-.74-1.55-.16-2.94-.24-4.17-.24-3.6,0-6.5.49-8.71,1.47-2.21.98-3.31,2.45-3.31,4.42s1.39,3.78,4.17,5.21c2.78,1.43,6.91,3.05,12.39,4.84,4.74,1.47,8.62,2.93,11.65,4.35,3.02,1.43,5.6,3.45,7.73,6.07,2.13,2.62,3.19,6.01,3.19,10.18,0,7.93-2.88,13.9-8.64,17.9-5.76,4.01-13.51,6.01-23.23,6.01-7.36,0-15.57-1.02-24.65-3.07Z"/>
  </g>
  <g>
    <path class="cls-1" d="M423.2,728.68c-3.19-1.47-5.64-3.82-7.36-7.05-1.72-3.23-2.58-7.42-2.58-12.57v-72.59h18.27v20.23h19.74v14.96h-19.86v1.1l.12,34.95c0,2.04.26,3.7.8,4.96.53,1.27,1.31,2.19,2.33,2.76s2.31.86,3.86.86,3.35-.2,5.64-.61c1.14-.24,2.31-.53,3.49-.86,1.18-.32,2.39-.73,3.62-1.23v15.33c-5.81,1.31-11.2,1.96-16.19,1.96s-8.71-.73-11.89-2.21Z"/>
    <path class="cls-1" d="M474.76,726.23c-5.76-3.27-10.26-7.79-13.49-13.55-3.23-5.76-4.84-12.28-4.84-19.56s1.66-13.79,4.97-19.56c3.31-5.76,7.89-10.26,13.73-13.49,5.84-3.23,12.4-4.84,19.68-4.84s13.67,1.64,19.43,4.91c5.76,3.27,10.26,7.79,13.49,13.55,3.23,5.76,4.84,12.28,4.84,19.56s-1.66,13.79-4.96,19.56c-3.31,5.76-7.89,10.26-13.73,13.49-5.84,3.23-12.41,4.84-19.68,4.84s-13.67-1.64-19.44-4.91ZM505.05,711.39c2.98-1.72,5.27-4.15,6.87-7.3,1.59-3.15,2.39-6.76,2.39-10.85,0-6.21-1.8-11.24-5.39-15.08-3.6-3.84-8.42-5.76-14.47-5.76-4.01,0-7.5.86-10.48,2.58-2.98,1.72-5.27,4.15-6.87,7.3-1.59,3.15-2.39,6.77-2.39,10.85s.8,7.71,2.39,10.85c1.59,3.15,3.9,5.6,6.93,7.36,3.02,1.76,6.54,2.64,10.55,2.64s7.5-.86,10.48-2.58Z"/>
    <path class="cls-1" d="M554.65,727.27c-4.42-2.58-7.97-6.68-10.67-12.32-2.7-5.64-4.05-12.79-4.05-21.46s1.37-15.86,4.11-21.58c2.74-5.72,6.38-9.93,10.91-12.63,4.54-2.7,9.46-4.05,14.78-4.05,5.64,0,10.83,1.53,15.57,4.6,4.74,3.06,8.05,7.26,9.93,12.57h.86v-40.83h18.27v98.09h-18.27v-15.69h-.86c-1.47,3.68-3.52,6.81-6.13,9.38-2.62,2.58-5.62,4.52-9.01,5.82-3.39,1.31-6.97,1.96-10.73,1.96-5.39,0-10.3-1.29-14.71-3.86ZM586.77,711.39c2.94-1.72,5.23-4.15,6.87-7.3,1.63-3.15,2.45-6.76,2.45-10.85,0-6.21-1.74-11.24-5.21-15.08-3.48-3.84-8.03-5.76-13.67-5.76-4.01,0-7.44.92-10.3,2.76s-5.03,4.4-6.5,7.66c-1.47,3.27-2.21,6.99-2.21,11.16,0,6.21,1.61,11.1,4.84,14.65,3.23,3.56,7.83,5.33,13.79,5.33,3.68,0,6.99-.86,9.93-2.58Z"/>
    <path class="cls-1" d="M631.41,725.49c-4.01-3.76-6.01-8.91-6.01-15.45,0-7.11,2.35-12.49,7.05-16.12,4.7-3.64,11.22-5.46,19.56-5.46h18.15v-5.4c0-3.84-1.25-6.58-3.74-8.21-2.5-1.63-5.99-2.45-10.49-2.45-2.94,0-6.54.41-10.79,1.23-4.74,1.06-9.28,2.41-13.61,4.05v-18.51c9.07-2.61,17.78-3.92,26.12-3.92,6.38,0,11.85.98,16.43,2.94,4.58,1.96,8.11,5.01,10.61,9.14,2.49,4.13,3.74,9.42,3.74,15.88v46.47h-17.78v-12.38h-.98c-2.78,5.15-6.11,8.75-9.99,10.79-3.88,2.04-8.2,3.07-12.94,3.07-6.21,0-11.32-1.88-15.33-5.64ZM660.83,716.3c2.29-.98,4.33-2.72,6.13-5.21,1.8-2.49,2.86-5.86,3.19-10.11h-14.84c-2.7,0-4.86.18-6.5.55-1.64.37-2.9,1.15-3.8,2.33-.9,1.19-1.35,2.92-1.35,5.21,0,2.78.92,4.93,2.76,6.44,1.84,1.51,4.43,2.27,7.79,2.27,2.12,0,4.33-.49,6.62-1.47Z"/>
    <path class="cls-1" d="M705.22,751.12v-16.43c2.45.73,4.84,1.39,7.17,1.96,2.33.57,4.6,1.06,6.81,1.47,1.72.24,3.39.43,5.03.55,1.63.12,3.19.19,4.66.19,4.5,0,8.34-.67,11.53-2.02,3.19-1.35,5.62-3.43,7.3-6.25,1.68-2.82,2.52-6.39,2.52-10.73v-8.09h-1.23c-1.23,3.68-2.92,6.81-5.09,9.38-2.17,2.58-4.72,4.52-7.66,5.82s-6.21,1.96-9.81,1.96c-7.36,0-13.16-2.15-17.41-6.44-4.25-4.29-6.38-10.61-6.38-18.94v-46.84h18.27v40.1c0,4.9.9,8.62,2.7,11.16,1.8,2.54,5.07,3.8,9.81,3.8,2.78,0,5.37-.51,7.79-1.53,2.41-1.02,4.45-2.92,6.13-5.7,1.67-2.78,2.51-6.62,2.51-11.53v-36.29h18.27v62.9c0,7.77-1.45,14.22-4.35,19.37s-7.15,8.99-12.75,11.53c-5.6,2.53-12.49,3.8-20.66,3.8-8.66,0-17.04-1.06-25.14-3.19Z"/>
  </g>
  <g>
    <ellipse class="cls-1" cx="502.05" cy="315.36" rx="39.64" ry="53.98"/>
    <ellipse class="cls-1" cx="583.99" cy="318.74" rx="39.64" ry="53.98"/>
    <circle cx="491.81" cy="315.69" r="21.3"/>
    <circle cx="575.03" cy="316.66" r="21.3"/>
  </g>
</svg>